<?xml version="1.0" standalone="no"?>
<!DOCTYPE svg PUBLIC "-//W3C//DTD SVG 20010904//EN"
 "http://www.w3.org/TR/2001/REC-SVG-20010904/DTD/svg10.dtd">
<svg version="1.0" xmlns="http://www.w3.org/2000/svg"
 width="300.000000pt" height="490.000000pt" viewBox="0 0 300.000000 490.000000"
 preserveAspectRatio="xMidYMid meet">
<metadata>
Created by potrace 1.10, written by Peter Selinger 2001-2011
</metadata>
<g transform="translate(0.000000,490.000000) scale(0.100000,-0.100000)"
fill="#34D399" stroke="none">
<path d="M177 4414 c-4 -299 -11 -491 -17 -499 -6 -8 -5 -18 5 -31 11 -14 15
-55 15 -169 1 -82 5 -159 10 -170 5 -11 9 275 9 668 1 378 -3 687 -7 687 -5 0
-12 -219 -15 -486z"/>
<path d="M1305 4782 l0 -117 55 18 c162 55 339 -64 357 -238 8 -73 -2 -112
-41 -178 -37 -62 -35 -73 6 -29 70 75 78 219 18 335 -19 37 -40 67 -47 67 -8
0 -16 7 -19 15 -6 16 -58 45 -81 45 -7 0 -13 5 -13 11 0 8 -31 10 -100 7 -60
-3 -104 0 -110 6 -5 5 -10 47 -10 93 0 46 -3 83 -7 83 -5 0 -8 -53 -8 -118z"/>
<path d="M2360 4690 c0 -203 1 -210 20 -210 14 0 20 -7 20 -23 0 -13 12 -34
26 -48 16 -15 23 -31 20 -43 -3 -10 2 -35 11 -55 l16 -36 156 3 c85 2 161 8
167 13 6 5 14 6 17 2 4 -3 7 -233 7 -510 0 -476 -1 -504 -17 -499 -31 9 -98
10 -111 2 -8 -4 -30 -5 -50 0 -20 4 -42 6 -49 5 -22 -3 -28 24 -34 149 l-5
125 -2 -152 -2 -153 135 0 135 0 -2 -281 -3 -282 -48 -12 c-50 -13 -99 -51
-123 -97 -11 -20 -14 -72 -14 -208 0 -99 3 -180 8 -180 4 0 8 71 9 159 2 175
11 213 63 262 17 16 46 31 67 35 63 10 75 37 73 162 -2 148 -3 261 -1 302 1
19 -1 60 -4 90 -10 83 -9 1066 1 1212 5 74 5 142 0 165 -7 31 -13 128 -16 296
0 9 -7 17 -15 17 -13 0 -15 -23 -15 -144 0 -86 4 -147 10 -151 6 -4 10 -65 10
-151 l0 -144 -175 0 -176 0 3 153 3 152 108 3 107 3 0 139 c0 113 -3 140 -14
140 -11 0 -14 -23 -15 -112 -2 -114 -9 -138 -42 -138 -10 0 -21 -5 -24 -10
-17 -28 -25 13 -25 131 0 79 -4 129 -10 129 -6 0 -10 -45 -10 -114 0 -118 -3
-128 -43 -131 -30 -3 -71 -51 -73 -87 -1 -18 -2 -43 -3 -55 -1 -33 -24 -28
-40 8 -10 22 -14 81 -14 205 0 96 -4 174 -9 174 -4 0 -8 -94 -8 -210z"/>
<path d="M768 4772 c-33 -4 -56 -28 -41 -43 8 -8 11 -6 10 7 -2 18 8 19 133
22 118 2 136 0 147 -15 7 -9 13 -12 13 -6 0 7 -7 19 -16 28 -13 13 -35 15
-118 13 -55 -2 -113 -4 -128 -6z"/>
<path d="M752 4703 c2 -14 15 -19 56 -21 l52 -3 0 -45 c0 -32 4 -44 15 -44 11
0 15 12 15 45 l0 45 48 0 c44 0 72 12 72 32 0 4 -59 8 -131 8 -119 0 -130 -2
-127 -17z"/>
<path d="M320 4660 c-17 -17 -20 -34 -20 -100 l0 -80 45 0 45 0 0 76 c0 41 -4
83 -10 93 -15 29 -38 33 -60 11z m38 -70 c2 -18 1 -45 -3 -59 -6 -25 -7 -25
-20 -7 -8 10 -12 30 -10 44 1 15 3 35 4 45 2 31 26 13 29 -23z"/>
<path d="M1250 4644 c-43 -30 -76 -68 -103 -119 -17 -31 -21 -58 -22 -125 0
-98 6 -128 35 -174 40 -66 48 -56 12 14 -32 63 -36 80 -36 144 0 62 4 82 32
139 30 60 66 101 110 126 9 5 15 12 12 14 -3 3 -21 -6 -40 -19z"/>
<path d="M3 4565 c0 -44 2 -61 4 -37 2 23 2 59 0 80 -2 20 -4 1 -4 -43z"/>
<path d="M2261 4573 c-20 -18 -20 -26 -22 -413 0 -217 -3 -417 -6 -443 -5 -45
-7 -48 -32 -45 -15 2 -33 -4 -45 -16 -10 -10 -21 -14 -25 -10 -3 5 -24 10 -46
10 -36 1 -227 62 -197 64 6 0 12 4 12 9 0 16 82 91 101 91 10 0 31 -5 46 -11
87 -36 91 -39 107 -82 15 -39 15 -40 10 -7 -12 67 -22 80 -79 105 -95 43 -97
42 -149 -13 -62 -66 -120 -106 -146 -99 -27 7 -26 -10 1 -18 13 -4 25 -2 29 5
5 8 18 10 39 5 49 -10 195 -75 208 -92 10 -14 20 -12 77 15 l65 31 7 -37 c6
-32 -4 -157 -22 -272 -6 -33 -5 -34 9 -15 12 17 34 145 36 210 0 11 5 52 10
90 5 39 10 260 10 493 0 233 3 428 7 433 3 5 22 9 42 10 30 0 33 2 17 9 -30
13 -41 12 -64 -7z"/>
<path d="M62 4508 c1 -32 5 -58 10 -58 10 0 9 57 -2 90 -7 19 -8 10 -8 -32z"/>
<path d="M105 4401 c2 -40 6 -76 10 -79 9 -9 3 110 -6 133 -5 12 -7 -9 -4 -54z"/>
<path d="M348 4463 l-48 -4 0 -98 0 -98 -25 2 c-14 2 -35 0 -47 -3 -16 -5 -2
-9 42 -12 l65 -5 3 -253 2 -253 -64 -102 c-35 -56 -62 -104 -60 -106 15 -16
129 158 139 213 4 21 8 72 9 114 1 76 1 76 29 77 16 1 35 8 42 16 13 12 13 18
1 41 -8 15 -16 35 -19 45 -3 10 -5 5 -6 -13 0 -16 5 -36 11 -42 10 -10 10 -15
-2 -22 -37 -24 -41 0 -27 176 2 26 0 30 -17 26 -16 -4 -18 -2 -12 14 11 27 11
25 -3 74 -12 40 -14 43 -26 27 -11 -16 -13 -16 -19 -1 -3 8 -6 41 -6 73 0 66
18 99 55 99 24 0 25 -4 25 -52 0 -29 -5 -57 -12 -64 -6 -6 -9 -15 -5 -18 11
-11 15 -3 28 51 6 28 13 56 15 63 2 7 21 12 49 12 37 0 51 -5 70 -26 21 -23
25 -37 26 -93 1 -115 8 -205 18 -236 7 -22 10 15 10 133 1 168 -2 186 -42 230
-21 23 -59 26 -199 15z"/>
<path d="M1982 4343 c-4 -10 -7 -71 -7 -135 0 -65 -2 -118 -4 -118 -2 0 -28
13 -57 30 -29 16 -72 32 -96 36 -42 5 -41 5 41 -43 145 -82 256 -203 302 -326
l19 -52 -6 55 c-9 83 -37 131 -139 236 l-40 42 78 4 c53 3 82 9 88 19 12 19
11 230 -1 249 -7 10 -10 -28 -10 -117 l0 -133 -81 0 -81 0 4 135 c2 74 2 135
0 135 -1 0 -6 -8 -10 -17z"/>
<path d="M2025 4355 c24 -8 114 -11 109 -3 -3 4 -31 8 -62 7 -31 0 -52 -2 -47
-4z"/>
<path d="M835 4285 c-5 -2 -26 -6 -46 -9 -37 -6 -87 -41 -76 -52 3 -3 16 1 29
10 14 10 43 16 76 16 45 0 53 3 50 17 -3 17 -16 24 -33 18z"/>
<path d="M895 4253 l5 -43 -59 0 c-32 0 -73 -3 -92 -7 -28 -5 -30 -7 -14 -14
30 -11 108 -10 143 2 36 12 44 36 26 75 -14 29 -14 29 -9 -13z"/>
<path d="M1398 4200 c-239 -43 -439 -179 -521 -352 -32 -66 -58 -98 -82 -98
-8 0 4 49 21 84 20 41 9 45 -26 11 -19 -18 -33 -43 -36 -67 -4 -21 -12 -38
-18 -38 -18 1 -99 40 -119 58 -17 15 -18 15 -8 -10 23 -61 61 -125 95 -160 20
-20 36 -39 36 -41 0 -3 -9 -7 -20 -10 -32 -8 -44 -53 -31 -122 11 -59 11 -59
-22 -93 -40 -43 -84 -62 -142 -62 -81 0 -142 37 -207 125 -29 39 -29 39 -22
10 18 -78 76 -153 148 -195 30 -16 59 -36 65 -44 7 -8 22 -11 38 -8 24 4 25 6
9 17 -15 12 -15 15 10 34 l27 21 -46 0 c-59 0 -140 17 -163 35 -16 12 -13 12
21 0 22 -8 77 -14 123 -15 80 0 84 1 116 33 19 17 46 43 60 56 25 22 26 28 22
91 -4 54 -1 72 15 96 25 39 25 44 -16 95 -19 24 -35 47 -35 51 0 4 17 8 38 10
20 2 36 8 35 14 -1 6 17 12 44 13 25 0 64 10 87 21 22 11 31 18 19 16 -13 -2
-23 -1 -23 3 0 14 25 31 46 31 12 0 32 8 45 19 13 10 38 25 54 34 38 20 110
85 102 93 -3 4 -27 -12 -52 -34 -52 -46 -123 -82 -160 -82 -31 0 -31 9 -3 63
l22 42 10 -42 11 -43 35 21 c69 42 135 108 93 92 -10 -4 -25 -14 -33 -22 -14
-15 -55 -41 -64 -41 -2 0 -6 9 -9 19 -9 36 89 115 217 175 98 46 281 80 297
55 7 -11 11 -11 21 3 12 15 20 15 88 3 41 -7 87 -18 101 -23 60 -23 209 -220
195 -258 -3 -7 -24 -27 -48 -43 -24 -17 -48 -35 -54 -40 -24 -20 -70 -38 -88
-35 -69 11 -68 8 -30 72 43 71 42 103 -3 116 -38 10 -63 -4 -63 -39 0 -12 -19
-50 -42 -84 l-41 -62 -13 28 c-8 19 -13 22 -13 11 -1 -10 -4 -18 -8 -19 -175
-11 -196 -15 -220 -42 -11 -12 -23 -41 -27 -64 -17 -112 -86 -200 -207 -264
-32 -17 -61 -40 -64 -50 -4 -11 -11 -19 -16 -19 -5 0 -9 -15 -9 -32 0 -51 -13
-64 -41 -44 -13 9 -30 16 -39 15 -10 0 -11 -2 -2 -6 6 -2 12 -11 12 -19 0 -8
4 -14 9 -14 11 0 36 -37 45 -67 6 -18 3 -23 -11 -23 -26 -1 -49 -21 -56 -51
-5 -21 4 -41 44 -99 34 -50 49 -81 47 -98 -2 -15 3 -27 11 -30 11 -3 12 3 7
29 -27 151 -28 212 -4 333 l23 119 78 47 c86 52 128 89 159 138 22 36 48 123
48 163 0 33 24 39 160 39 l98 0 40 53 c55 72 67 96 53 110 -20 20 -11 29 22
22 17 -4 33 -9 35 -10 9 -8 -50 -104 -82 -135 l-37 -35 87 -12 87 -13 60 32
c33 18 81 51 106 74 l46 42 -23 48 c-61 125 -171 231 -269 257 -75 20 -211 29
-275 17z"/>
<path d="M64 4065 c0 -60 1 -84 3 -52 2 32 2 81 0 110 -2 29 -3 3 -3 -58z"/>
<path d="M1513 3960 c0 -41 2 -58 4 -37 2 20 2 54 0 75 -2 20 -4 3 -4 -38z"/>
<path d="M800 3720 c-11 -7 -4 -10 27 -10 23 0 45 5 48 10 8 13 -55 13 -75 0z"/>
<path d="M1550 3720 c0 -6 8 -13 18 -17 26 -9 92 -83 109 -123 9 -19 19 -71
23 -115 l7 -80 2 66 c1 74 -16 143 -48 188 -25 35 -111 98 -111 81z"/>
<path d="M2519 3593 c-3 -83 2 -257 6 -261 3 -3 5 63 5 146 0 84 -2 152 -5
152 -3 0 -5 -17 -6 -37z"/>
<path d="M2004 3535 c9 -14 12 -25 7 -25 -16 0 0 -43 35 -95 29 -43 34 -61 38
-125 2 -41 5 -82 6 -90 0 -8 7 -1 14 15 7 17 29 44 47 60 l34 30 -57 48 c-32
27 -58 54 -58 59 0 6 10 3 22 -8 16 -14 15 -9 -7 21 -37 51 -54 69 -31 32 10
-16 15 -31 12 -34 -2 -3 -14 14 -26 37 -12 23 -17 39 -11 35 6 -3 4 10 -6 29
-9 20 -21 36 -26 36 -5 0 -2 -11 7 -25z"/>
<path d="M1086 3379 c-21 -22 -36 -43 -33 -45 2 -2 18 3 36 12 40 20 75 14
159 -26 54 -25 61 -27 52 -10 -6 10 -18 24 -28 29 -14 9 -13 10 10 11 15 0 30
-4 33 -10 3 -5 18 -10 33 -10 21 0 23 -3 12 -10 -12 -7 -10 -11 10 -18 62 -23
68 -23 75 -3 8 27 -23 61 -55 61 -14 0 -41 5 -60 10 -19 6 -66 17 -105 26 -38
8 -77 17 -86 19 -10 4 -30 -10 -53 -36z"/>
<path d="M604 3385 c-34 -16 -53 -31 -57 -46 -9 -34 -2 -35 50 -10 32 15 43
25 34 31 -9 5 -10 10 -3 14 6 3 13 2 17 -4 9 -15 25 -2 25 21 0 23 -2 23 -66
-6z"/>
<path d="M1820 3374 c-36 -13 -91 -26 -123 -30 -42 -5 -61 -12 -68 -26 -18
-33 -1 -37 69 -17 83 24 89 24 69 1 -22 -24 -22 -52 1 -52 14 0 15 2 2 10 -18
11 -20 10 66 54 57 29 76 35 96 27 29 -11 43 -28 52 -63 3 -14 9 -34 12 -43 6
-14 3 -16 -16 -10 -15 5 -20 4 -16 -4 10 -16 -10 -14 -51 5 -41 20 -151 14
-184 -10 -26 -18 -62 -76 -54 -85 7 -6 65 57 65 71 0 18 16 5 31 -24 8 -17 22
-34 30 -36 11 -4 12 -2 2 9 -10 10 -9 16 4 31 18 20 48 24 58 8 5 -7 11 -8 19
-1 7 6 17 6 26 1 12 -7 10 -13 -9 -34 -13 -14 -33 -28 -43 -32 -10 -3 -15 -10
-12 -16 13 -21 64 3 125 60 l63 60 -13 43 c-15 50 -88 130 -117 128 -11 -1
-48 -12 -84 -25z"/>
<path d="M2521 3304 c0 -12 -8 -38 -16 -57 -12 -30 -15 -102 -15 -429 0 -216
4 -399 9 -406 13 -22 21 254 14 531 -5 193 -3 266 6 295 7 21 11 49 8 63 -4
21 -4 21 -6 3z"/>
<path d="M1540 3099 l0 -211 -25 4 c-14 3 -25 1 -25 -3 0 -11 60 -12 60 -1 1
4 5 26 9 50 5 23 6 42 2 42 -3 0 -6 74 -5 165 0 91 -3 165 -8 165 -4 0 -8 -95
-8 -211z"/>
<path d="M774 3222 c-32 -32 -69 -72 -81 -89 -17 -22 -29 -30 -43 -26 -11 3
-20 10 -20 15 0 5 -4 7 -9 3 -5 -3 -16 1 -24 9 -8 8 -17 12 -21 9 -3 -4 -6 3
-6 15 0 15 -4 20 -16 15 -11 -4 -12 -9 -5 -16 18 -18 13 -27 -14 -27 -18 0
-25 -5 -25 -20 0 -24 8 -25 34 -5 25 19 56 19 56 1 0 -8 10 -22 22 -30 16 -12
19 -19 11 -27 -13 -13 -56 -2 -48 12 12 19 -6 28 -35 17 -34 -11 -35 -14 -16
-34 8 -7 16 -19 18 -26 3 -8 11 -9 24 -3 10 5 24 9 29 10 6 1 26 11 45 23 19
12 37 23 40 24 3 2 16 27 30 57 14 31 45 71 74 97 27 25 47 47 44 49 -3 3 -31
-21 -64 -53z"/>
<path d="M1100 3270 c0 -9 6 -22 13 -29 8 -9 1 -8 -20 3 -44 22 -50 20 -24 -8
16 -17 19 -25 9 -28 -7 -3 4 -12 25 -21 20 -9 37 -21 37 -27 0 -12 48 -60 61
-60 24 0 17 26 -15 52 -20 16 -34 33 -31 38 9 15 55 17 66 4 9 -11 8 -14 -6
-14 -17 0 -17 -1 0 -20 20 -22 50 -26 61 -9 4 7 0 9 -12 5 -11 -3 -26 -1 -33
4 -12 7 -9 10 11 15 15 4 32 4 37 0 6 -3 11 -1 11 6 0 7 10 3 23 -9 13 -12 26
-19 30 -16 4 4 13 1 22 -6 9 -7 18 -10 22 -7 3 4 -12 24 -34 46 -31 32 -51 42
-101 52 -61 13 -83 29 -39 29 43 0 102 -22 130 -48 30 -29 36 -19 10 18 -16
22 -16 23 2 17 15 -6 16 -5 5 8 -10 13 -15 13 -21 3 -6 -10 -15 -10 -42 0 -46
16 -105 15 -123 -3 -9 -8 -21 -15 -27 -15 -7 0 -3 7 7 15 11 8 15 15 8 15 -6
0 -17 -6 -24 -14 -11 -11 -15 -11 -25 3 -11 14 -12 14 -13 1z"/>
<path d="M1845 3260 c28 -4 62 -10 75 -14 20 -5 19 -3 -5 9 -16 8 -50 14 -75
13 l-45 0 50 -8z"/>
<path d="M2132 3224 c-37 -44 -40 -51 -45 -128 -3 -51 -13 -98 -26 -128 -25
-54 -39 -138 -23 -138 21 0 103 89 123 134 27 61 40 143 27 176 -5 14 -19 35
-30 47 -33 35 -13 39 22 5 l31 -31 -6 37 c-15 88 -19 89 -73 26z m28 -105 c16
-29 11 -87 -10 -129 -11 -22 -25 -40 -30 -40 -14 0 -12 9 9 39 34 47 37 79 10
104 -21 19 -26 31 -20 52 2 10 32 -8 41 -26z"/>
<path d="M797 3208 c-50 -48 -87 -127 -87 -186 0 -39 6 -58 31 -91 30 -42 94
-80 133 -81 19 0 19 1 -1 23 -34 36 -53 83 -59 144 -6 54 0 88 32 201 9 31 -9
28 -49 -10z m10 -45 c-3 -16 -11 -53 -17 -83 -7 -30 -9 -74 -6 -97 7 -51 -4
-55 -26 -10 -21 45 -15 127 14 178 25 45 43 51 35 12z"/>
<path d="M1454 3218 c4 -16 2 -28 -6 -30 -6 -2 -9 -10 -7 -17 3 -9 11 -4 23
14 17 26 17 28 1 44 -16 15 -17 14 -11 -11z"/>
<path d="M865 3218 c-26 -72 -35 -104 -35 -126 0 -27 40 -145 47 -138 2 2 -3
40 -11 83 -13 68 -13 88 -2 136 12 51 12 77 1 45z"/>
<path d="M1270 3129 c-43 -19 -44 -19 -10 -14 19 3 41 12 50 20 18 19 15 18
-40 -6z"/>
<path d="M2240 3129 c0 -4 12 -28 26 -53 18 -32 28 -68 32 -111 7 -96 1 -109
-66 -141 -31 -15 -68 -30 -82 -34 -22 -6 -25 -12 -26 -56 -1 -27 2 -64 6 -81
7 -26 5 -33 -6 -33 -8 0 -14 5 -14 10 0 6 -6 10 -12 10 -7 0 7 -18 32 -39 25
-22 46 -38 48 -37 1 2 -9 33 -23 70 -14 37 -22 73 -18 79 4 7 8 17 9 22 0 6 2
15 2 21 2 10 79 40 95 36 4 -1 7 3 7 8 0 6 8 10 18 10 38 0 70 101 50 160 -4
14 -13 44 -18 67 -9 35 -59 112 -60 92z"/>
<path d="M1693 3112 c-18 -2 -33 -7 -33 -13 0 -13 97 -11 106 2 4 6 19 9 36 5
19 -4 27 -2 23 5 -6 9 -46 9 -132 1z"/>
<path d="M220 3070 c34 -47 92 -82 124 -74 39 9 32 31 -13 39 -22 4 -60 20
-86 36 l-47 30 22 -31z"/>
<path d="M1947 3089 c-17 -10 -17 -12 -1 -36 20 -32 20 -87 0 -145 -27 -79
-65 -182 -86 -238 -12 -30 -24 -64 -27 -75 -3 -11 -14 -29 -23 -40 -10 -11
-26 -33 -36 -49 l-18 -29 30 16 c43 23 70 50 71 72 1 11 8 38 17 60 25 65 107
297 118 334 11 38 3 101 -13 101 -6 0 -8 9 -4 20 7 22 -1 25 -28 9z"/>
<path d="M416 3058 c-21 -10 -36 -21 -33 -24 6 -7 77 28 77 38 0 4 -1 8 -2 7
-2 -1 -20 -10 -42 -21z"/>
<path d="M1021 3043 c-1 -32 37 -129 70 -178 16 -24 29 -50 29 -58 0 -9 5 -19
11 -23 17 -10 2 31 -38 106 -19 36 -43 90 -53 120 -11 30 -19 45 -19 33z"/>
<path d="M370 2972 c0 -12 39 -46 45 -41 6 7 -24 49 -36 49 -5 0 -9 -4 -9 -8z"/>
<path d="M919 2895 c-1 -8 -1 -22 -1 -30 0 -74 2 -83 22 -78 18 5 18 6 3 30
-9 14 -16 41 -15 59 2 19 0 34 -3 34 -3 0 -6 -7 -6 -15z"/>
<path d="M1450 2861 c-8 -6 -18 -7 -22 -5 -4 3 -8 1 -8 -5 0 -11 79 -35 88
-27 5 6 -27 46 -37 46 -3 0 -13 -4 -21 -9z"/>
<path d="M1553 2838 c-24 -27 -36 -78 -22 -98 7 -12 9 -9 10 10 1 14 3 30 3
35 3 20 18 36 43 46 13 5 21 13 18 19 -10 16 -30 11 -52 -12z"/>
<path d="M1011 2832 c-1 -39 63 -222 73 -211 2 2 -14 56 -35 119 -20 63 -38
105 -38 92z"/>
<path d="M865 2814 c-18 -28 -15 -40 10 -31 8 4 15 18 15 32 0 31 -4 31 -25
-1z"/>
<path d="M1990 2798 c-7 -23 -17 -53 -22 -65 -6 -11 -8 -27 -5 -35 3 -8 6 -5
6 8 1 11 5 24 9 30 12 13 35 95 28 101 -2 3 -10 -15 -16 -39z"/>
<path d="M2024 2794 c3 -9 6 -27 6 -40 0 -14 4 -22 10 -19 6 3 10 2 10 -2 0
-5 7 -18 16 -29 14 -18 15 -18 8 6 -6 22 -5 23 9 12 9 -8 17 -28 19 -45 3 -32
3 -32 9 6 5 34 1 44 -34 83 -39 44 -64 58 -53 28z"/>
<path d="M948 2763 c-24 -4 -28 -9 -28 -39 0 -21 4 -33 10 -29 6 3 10 11 10
17 0 7 10 22 22 35 12 13 20 22 17 22 -2 -1 -16 -4 -31 -6z"/>
<path d="M864 2715 c22 -46 43 -61 32 -22 -3 12 -6 32 -6 45 0 16 -6 22 -24
22 l-23 0 21 -45z"/>
<path d="M90 2393 l0 -363 -45 0 c-25 0 -45 -4 -45 -10 0 -6 61 -10 163 -10
l162 0 -3 280 -3 280 -52 0 -52 1 -43 67 c-90 141 -82 167 -82 -245z m36 285
c9 -18 20 -35 23 -38 3 -3 19 -24 34 -47 25 -39 31 -43 67 -43 l40 0 0 -57 c1
-32 3 -140 6 -241 2 -100 1 -190 -4 -199 -7 -12 -29 -16 -101 -17 l-91 -2 0
338 c0 186 2 338 5 338 2 0 12 -15 21 -32z"/>
<path d="M1986 2697 c-9 -30 -27 -70 -41 -91 -28 -41 -29 -46 -15 -46 6 0 10
6 10 14 0 8 16 20 35 26 l34 11 -2 70 c-1 38 -3 69 -4 69 -1 0 -9 -24 -17 -53z"/>
<path d="M1537 2713 c-29 -8 -8 -23 31 -23 35 1 36 2 18 15 -11 8 -22 14 -25
14 -3 -1 -14 -3 -24 -6z"/>
<path d="M1381 2660 c-25 -3 -46 -9 -48 -15 -2 -6 41 -9 119 -7 68 2 143 0
166 -3 42 -6 43 -7 27 -25 -14 -16 -11 -16 27 3 39 20 41 22 18 25 -14 2 -31
9 -38 14 -13 11 -195 17 -271 8z"/>
<path d="M348 2584 c-37 -11 -16 -24 37 -24 l55 0 0 -270 c0 -157 4 -270 9
-270 12 0 226 76 249 89 12 6 26 5 42 -5 30 -16 40 -17 40 -4 0 5 -12 16 -27
24 -25 13 -36 11 -140 -25 -62 -22 -121 -39 -131 -39 -16 0 -18 17 -20 247 -2
187 -6 251 -15 261 -15 14 -72 23 -99 16z"/>
<path d="M1438 2571 c24 -20 28 -37 10 -43 -7 -3 21 -5 61 -6 63 -2 72 0 67
14 -3 8 -6 18 -6 20 0 2 -19 4 -42 5 -31 0 -37 3 -24 8 18 7 18 8 -5 14 -13 4
-37 7 -53 7 l-29 0 21 -19z"/>
<path d="M1166 2484 c3 -33 10 -75 15 -94 5 -19 9 -56 9 -81 0 -51 3 -55 75
-94 l50 -28 -46 41 c-41 37 -45 45 -47 89 -1 26 -5 70 -8 97 l-6 50 23 -16
c181 -118 190 -122 301 -120 44 1 82 8 112 22 58 26 65 25 36 -5 -39 -42 -9
-28 37 17 23 23 45 40 47 37 3 -3 -1 -29 -8 -59 -8 -30 -17 -72 -21 -93 -5
-29 -14 -43 -37 -55 -17 -9 -43 -27 -59 -40 l-29 -23 1 -142 c1 -77 5 -150 9
-161 5 -13 9 46 9 145 l1 166 59 26 c33 14 64 34 70 44 5 11 16 65 25 121 8
55 20 110 25 121 23 41 8 39 -72 -13 -122 -79 -139 -86 -204 -86 -89 0 -130
16 -236 94 -54 39 -107 77 -118 85 -19 13 -19 12 -13 -45z"/>
<path d="M1846 2455 c-10 -27 -7 -35 12 -35 59 0 175 -85 255 -185 28 -36 38
-43 32 -25 -4 14 -16 39 -26 55 -22 37 -108 119 -116 112 -3 -4 -12 1 -20 9
-8 8 -19 12 -24 9 -5 -4 -9 8 -9 26 0 26 -3 30 -12 21 -18 -18 -45 -15 -66 9
-17 18 -20 18 -26 4z"/>
<path d="M882 2297 c-1 -94 2 -146 8 -142 11 7 11 99 0 215 -5 64 -7 54 -8
-73z"/>
<path d="M1115 2423 c-24 -6 -126 -75 -144 -97 -17 -21 -45 -21 -37 -1 3 8 1
15 -4 15 -6 0 -10 -33 -9 -77 1 -62 3 -71 9 -44 10 40 85 120 158 167 28 19
52 37 52 39 0 3 -1 4 -2 4 -2 -1 -12 -4 -23 -6z"/>
<path d="M2525 2214 c0 -171 1 -185 18 -180 10 2 17 -1 17 -9 0 -13 21 -25 43
-25 7 0 6 4 -3 10 -13 8 -15 39 -12 200 l2 190 -32 0 -33 0 0 -186z"/>
<path d="M1840 2309 c0 -62 2 -70 15 -59 24 20 28 50 9 71 -17 19 -17 20 7 11
34 -13 49 -48 49 -116 0 -80 -27 -133 -103 -201 -34 -30 -57 -55 -50 -55 22 0
138 117 161 163 15 31 22 62 22 106 0 63 11 77 31 39 7 -12 33 -42 58 -65 l46
-43 0 -79 c0 -44 1 -78 2 -77 6 6 33 151 33 178 0 25 -3 28 -14 19 -11 -9 -29
3 -87 59 -71 69 -100 90 -154 110 l-25 10 0 -71z"/>
<path d="M1118 2359 c-10 -5 -43 -43 -73 -84 -57 -78 -89 -105 -98 -82 -8 18
-6 -23 3 -58 l7 -30 7 28 c5 15 20 37 35 50 14 12 35 40 46 62 l19 40 7 -65
c6 -60 43 -149 57 -136 3 3 1 11 -5 18 -30 41 8 147 43 118 6 -6 31 -16 55
-25 42 -14 43 -14 19 3 -14 9 -41 32 -61 50 -20 17 -39 32 -43 32 -8 0 -27
-45 -36 -90 l-8 -35 -1 36 c-1 34 25 129 36 129 3 0 14 -10 25 -22 l19 -23 -5
34 c-3 18 -6 40 -6 47 0 16 -18 18 -42 3z"/>
<path d="M1880 2262 c0 -5 -22 -21 -50 -36 -27 -15 -52 -31 -55 -36 -12 -20
32 -9 66 15 19 14 41 24 50 22 12 -3 15 2 11 19 -4 22 -22 35 -22 16z"/>
<path d="M2972 2225 c-15 -33 -15 -35 3 -35 10 0 15 10 15 30 0 37 -3 37 -18
5z"/>
<path d="M1511 2115 c-2 -71 -5 -175 -6 -230 0 -56 -4 -106 -8 -111 -4 -7 -71
-14 -163 -18 -96 -4 -172 -13 -198 -22 -22 -8 -45 -16 -50 -17 -11 -2 -75 280
-75 333 -1 25 5 39 19 48 18 11 24 9 45 -12 31 -31 32 -22 2 27 l-23 38 -44
-32 c-25 -18 -46 -33 -47 -34 -5 -3 79 -401 142 -672 l68 -293 45 3 c28 1 46
-3 49 -10 4 -10 -7 -11 -42 -6 -46 6 -47 6 -40 -18 4 -13 8 -25 9 -25 0 -1 34
-4 74 -6 57 -3 71 -1 67 9 -2 8 -12 42 -20 76 -44 172 -119 385 -160 460 -25
43 -45 83 -45 87 0 19 185 35 398 35 l222 0 0 63 c0 34 -2 62 -5 62 -20 0 -84
-53 -87 -72 -2 -19 -11 -24 -53 -29 -27 -3 -52 -4 -55 -2 -3 3 -7 116 -10 251
-5 199 -6 222 -9 117z m-365 -577 c25 -50 124 -346 124 -372 0 -8 -10 -11 -29
-8 -33 5 -43 22 -62 117 -7 33 -18 64 -23 68 -8 6 -7 10 1 13 8 4 9 11 3 22
-5 9 -18 53 -29 98 -33 126 -28 146 15 62z"/>
<path d="M909 2148 c-1 -13 -1 -27 0 -32 3 -18 -11 -46 -24 -46 -8 0 -24 -5
-37 -10 -22 -10 -23 -17 -25 -108 -1 -53 -5 -188 -9 -299 l-6 -203 29 0 c17 0
30 -5 30 -12 1 -7 2 -68 3 -135 l2 -122 36 -7 c21 -3 68 -15 107 -25 120 -33
116 -37 85 89 -22 93 -29 107 -48 110 -16 2 -22 10 -22 28 0 15 -6 24 -15 24
-17 0 -19 9 -5 30 6 10 10 11 10 3 0 -7 9 -13 21 -13 17 0 20 5 16 23 -5 19
-50 247 -92 467 -8 41 -20 117 -27 168 -12 86 -26 121 -29 70z m10 -200 c11
-51 30 -147 41 -212 11 -66 25 -137 31 -158 5 -21 7 -43 4 -47 -3 -5 0 -21 7
-35 10 -23 8 -31 -9 -54 -18 -25 -19 -31 -7 -53 16 -29 18 -59 4 -59 -5 0 -10
-4 -10 -10 0 -5 9 -10 20 -10 11 0 20 -4 20 -10 0 -5 7 -10 15 -10 8 0 19 -16
24 -37 17 -59 14 -73 -13 -73 -33 0 -96 28 -96 43 0 8 -4 7 -10 -3 -6 -9 -10
-11 -10 -3 0 8 -7 10 -17 6 -16 -6 -16 -5 -4 10 12 15 12 19 -5 31 -14 11 -16
17 -7 28 7 8 8 19 3 28 -5 8 -4 22 1 33 17 30 1 90 -34 127 -19 21 -27 35 -19
38 8 2 9 9 3 20 -11 22 -12 494 -1 487 5 -3 11 -1 15 5 18 30 34 5 54 -82z"/>
<path d="M2641 2156 c-8 -9 -11 -43 -9 -92 l3 -77 95 -38 c133 -54 210 -94
243 -124 l27 -26 0 26 c0 16 -6 25 -15 25 -8 0 -15 5 -15 12 0 6 -3 8 -7 5 -3
-4 -21 4 -39 18 -18 14 -37 25 -43 25 -6 0 -25 9 -43 20 -18 11 -39 20 -46 20
-7 0 -35 9 -62 21 -33 14 -47 25 -43 35 3 8 11 14 19 14 7 0 18 9 24 21 7 12
18 18 26 15 8 -3 13 -2 9 3 -3 5 1 12 7 14 10 4 9 6 -1 6 -8 1 -36 -13 -63
-30 -52 -31 -71 -32 -47 -2 12 14 12 16 0 9 -11 -7 -13 2 -9 53 2 33 3 61 2
61 -1 0 -7 -6 -13 -14z"/>
<path d="M2260 2109 c-26 -12 -39 -23 -32 -26 8 -3 31 3 52 12 38 17 39 17
131 -19 94 -37 120 -41 76 -11 -27 17 -153 65 -171 65 -6 0 -31 -10 -56 -21z"/>
<path d="M765 2059 c-66 -32 -210 -95 -320 -140 -366 -149 -395 -171 -431
-334 -6 -28 -5 -29 8 -10 8 11 23 41 32 66 21 55 48 88 101 121 42 26 209 99
285 125 67 23 242 102 260 117 8 8 50 28 92 46 69 28 108 54 97 64 -2 2 -58
-23 -124 -55z"/>
<path d="M2112 2002 c-1 -42 -5 -89 -8 -104 -3 -17 -1 -28 5 -28 15 0 36 53
22 58 -11 4 3 60 19 76 7 7 10 0 10 -23 0 -19 4 -30 10 -26 6 3 10 27 10 53 0
41 -3 49 -27 60 -15 6 -29 12 -32 12 -4 0 -7 -35 -9 -78z"/>
<path d="M2190 1853 c1 -160 3 -194 13 -178 8 14 11 66 10 167 -1 82 2 150 8
153 5 3 28 -3 52 -13 l44 -20 7 -68 c3 -38 9 -167 12 -286 5 -201 4 -217 -13
-227 -17 -10 -16 -10 4 -11 19 0 22 6 25 63 3 34 4 174 4 312 l-1 249 -70 28
c-38 15 -76 27 -82 28 -10 0 -13 -46 -13 -197z"/>
<path d="M760 2020 c-43 -17 -65 -40 -38 -40 7 0 20 -15 28 -32 l14 -33 3 38
c5 40 22 51 24 15 1 -14 5 -7 10 16 5 22 8 43 7 47 -2 4 -23 -1 -48 -11z"/>
<path d="M2063 1933 c-40 -76 -77 -172 -70 -179 3 -3 18 18 33 47 14 29 34 64
44 79 17 23 38 110 27 110 -2 0 -18 -26 -34 -57z"/>
<path d="M2385 1960 c11 -17 115 -62 131 -56 21 8 27 -33 22 -165 -4 -119 -4
-119 19 -119 14 0 23 6 23 15 0 8 -7 15 -15 15 -12 0 -15 19 -15 109 l0 110
28 -9 c43 -13 108 -37 128 -48 11 -6 53 -26 94 -45 57 -26 89 -49 133 -97 32
-35 60 -60 64 -56 13 12 -70 116 -115 145 -48 30 -424 194 -476 207 -22 5 -27
4 -21 -6z"/>
<path d="M1760 1738 c-29 -13 -30 -12 93 -29 49 -6 91 -17 93 -23 4 -11 -76
-165 -103 -198 -6 -7 -23 -49 -38 -93 -30 -88 -71 -187 -118 -283 -27 -56 -33
-63 -56 -60 -19 2 -25 8 -23 22 4 24 -17 17 -36 -12 -14 -21 -13 -22 25 -22
29 0 46 -7 62 -24 l22 -24 -32 -11 c-34 -12 -158 -13 -198 -2 -12 3 -29 20
-36 36 -10 23 -14 26 -14 10 -2 -48 10 -63 55 -70 24 -3 46 -10 49 -15 8 -13
107 0 126 16 21 19 40 18 33 -1 -4 -8 -2 -15 4 -15 15 0 23 59 11 81 -8 17 2
47 55 167 35 81 68 160 72 175 5 22 9 26 16 15 7 -9 8 -7 3 8 -3 12 -1 32 4
45 5 13 10 17 10 9 1 -14 50 76 51 93 0 4 18 34 40 66 22 32 40 66 40 76 0 24
-40 54 -72 55 -16 0 -28 6 -28 13 0 9 -2 9 -8 -1 -7 -10 -15 -10 -36 -2 -32
12 -34 12 -66 -2z"/>
<path d="M1771 1668 c-8 -18 -23 -41 -33 -52 -11 -10 -17 -25 -14 -33 4 -8 1
-11 -5 -8 -6 4 -13 -2 -16 -14 -5 -19 -39 -38 -50 -28 -11 12 36 77 57 77 6 0
8 5 5 10 -3 6 -11 10 -16 10 -16 0 -67 -61 -78 -92 l-10 -28 50 0 c32 0 49 4
49 13 0 6 23 46 50 87 53 80 57 90 37 90 -6 0 -18 -15 -26 -32z"/>
<path d="M1815 1657 c-10 -18 -35 -58 -56 -89 l-38 -58 57 0 c40 0 53 3 42 10
-8 5 -23 10 -32 10 -28 0 -28 14 0 57 15 22 32 49 38 59 8 14 21 18 55 16 48
-2 37 11 -17 21 -26 5 -33 2 -49 -26z"/>
<path d="M1170 1669 c-12 -7 -8 -9 16 -7 17 1 40 -4 49 -12 17 -14 17 -13 6 8
-12 23 -45 29 -71 11z"/>
<path d="M1590 1660 c-10 -7 13 -10 75 -9 59 0 83 3 70 9 -28 12 -127 12 -145
0z"/>
<path d="M1570 1630 c0 -8 4 -30 9 -48 12 -39 6 -59 -17 -65 -10 -3 -5 -5 11
-6 26 -1 27 1 27 47 0 27 -6 57 -15 68 -11 14 -14 15 -15 4z"/>
<path d="M2587 1541 c-4 -18 -6 -66 -6 -105 l2 -71 8 95 c9 100 7 138 -4 81z"/>
<path d="M1 1532 c-1 -25 24 -80 229 -497 199 -403 278 -528 420 -665 114
-111 134 -125 55 -40 -156 167 -276 354 -362 563 -30 73 -74 179 -98 237 -62
151 -75 180 -79 180 -8 0 11 -56 43 -124 17 -37 31 -71 31 -75 0 -13 70 -185
91 -224 12 -21 19 -40 16 -43 -9 -10 -302 589 -340 696 -3 10 -6 7 -6 -8z"/>
<path d="M1490 1540 c0 -5 -15 -14 -32 -19 l-33 -9 38 -1 c31 -1 37 2 37 19 0
11 -2 20 -5 20 -3 0 -5 -4 -5 -10z"/>
<path d="M1272 1368 c21 -62 56 -155 76 -208 37 -95 37 -95 75 -98 24 -2 37
-8 37 -18 0 -8 9 -14 20 -14 23 0 24 6 6 80 l-14 55 -3 -41 c-4 -40 -4 -40
-35 -32 -30 8 -51 34 -59 75 -2 12 -9 31 -15 42 -6 12 -26 65 -45 118 -30 84
-32 100 -20 112 12 12 19 12 47 0 44 -18 65 -45 77 -99 5 -25 17 -61 26 -80
l16 -35 -5 40 c-3 22 -6 52 -6 67 0 17 -18 48 -51 87 l-51 61 -58 0 -58 0 40
-112z"/>
<path d="M1415 1425 c44 -50 51 -55 89 -55 41 0 43 2 65 50 12 28 29 50 37 50
21 0 17 -43 -7 -74 -11 -14 -17 -26 -12 -25 4 0 27 25 51 55 l43 54 -156 0
-157 0 47 -55z m116 15 c5 0 9 -7 9 -16 0 -13 -7 -15 -31 -10 -17 3 -38 6 -45
6 -8 0 -14 5 -14 11 0 6 9 8 20 4 12 -4 20 -2 20 5 0 7 7 9 16 6 9 -3 20 -6
25 -6z"/>
<path d="M1656 1417 c-44 -54 -50 -67 -53 -116 l-3 -56 13 51 c27 102 78 160
150 166 69 7 70 18 1 17 l-59 0 -49 -62z"/>
<path d="M660 1415 c0 -40 -4 -53 -20 -63 -12 -7 -18 -17 -15 -23 12 -18 -15
-37 -60 -43 -25 -4 -47 -11 -50 -17 -4 -5 -16 -9 -27 -9 -12 0 -19 -2 -16 -5
6 -6 429 -115 443 -114 20 1 -42 21 -189 60 -192 50 -186 49 -186 60 0 10 18
8 88 -8 21 -5 22 -2 22 46 0 28 5 51 10 51 6 0 10 -24 10 -54 0 -59 1 -60 43
-70 l28 -7 -2 68 c-2 53 1 68 12 68 10 0 15 -18 17 -72 3 -68 4 -71 30 -77 15
-4 36 -9 47 -12 15 -4 11 2 -12 23 -26 22 -34 39 -39 78 -10 75 -36 95 -76 58
-17 -15 -20 -15 -28 -3 -6 8 -10 31 -10 50 0 19 -5 42 -10 50 -7 11 -10 1 -10
-35z"/>
<path d="M630 1420 c0 -15 -5 -31 -12 -38 -9 -9 -7 -12 10 -12 16 0 22 6 22
23 0 12 -5 29 -10 37 -8 12 -10 10 -10 -10z"/>
<path d="M2808 1364 c-9 -21 -13 -43 -10 -48 6 -11 34 63 29 78 -2 5 -10 -8
-19 -30z"/>
<path d="M2237 1354 c-5 -23 -5 -58 -2 -78 4 -20 3 -36 -1 -37 -57 -5 -130
-23 -137 -33 -5 -6 -6 3 -3 19 3 17 2 37 -4 45 -8 12 -10 10 -11 -10 -1 -14
-1 -33 0 -42 3 -21 -28 -25 -46 -7 -9 9 -11 7 -7 -8 6 -22 -5 -28 -106 -53
-66 -17 -110 -40 -110 -58 0 -14 2 -14 13 1 8 12 83 35 222 71 116 30 246 63
289 75 44 12 88 21 99 21 16 0 17 3 7 15 -7 8 -10 31 -8 50 4 31 1 35 -19 35
-17 0 -23 -6 -23 -21 0 -11 5 -17 10 -14 15 9 25 -24 11 -38 -8 -8 -11 -7 -11
4 -1 10 -3 10 -11 -3 -6 -11 -22 -18 -39 -18 -28 0 -30 2 -30 39 0 22 -5 43
-11 47 -8 5 -9 -11 -4 -55 5 -42 4 -61 -4 -61 -10 0 -14 35 -15 117 0 12 -3
20 -7 17 -4 -2 -10 2 -12 8 -3 7 -7 -25 -8 -72 l-3 -85 -5 85 c-6 78 -7 82
-14 44z"/>
<path d="M2580 1340 c-3 -46 -43 -318 -56 -382 -5 -26 -3 -28 29 -28 l35 0 21
118 c12 64 24 128 27 142 l4 25 -10 -25 c-6 -13 -19 -62 -30 -109 -11 -51 -25
-88 -35 -93 -8 -5 -13 -13 -10 -18 3 -5 1 -11 -5 -15 -14 -9 -13 15 11 145 24
134 33 223 26 242 -4 10 -6 10 -7 -2z"/>
<path d="M1491 1323 l-22 -18 23 -132 c24 -138 41 -168 51 -90 4 23 12 84 18
135 8 57 9 95 3 101 -21 20 -52 21 -73 4z"/>
<path d="M190 1308 c0 -6 25 -68 46 -113 8 -16 27 -64 43 -105 l28 -75 48 -3
c41 -3 46 -1 42 15 -3 10 -14 61 -24 113 -10 55 -19 84 -21 68 -2 -15 1 -51 7
-81 12 -68 6 -97 -23 -97 -18 0 -26 11 -40 53 -40 113 -106 254 -106 225z"/>
<path d="M1791 1263 c-17 -77 -51 -251 -51 -262 0 -6 58 -8 158 -5 142 4 157
6 160 23 2 15 -6 19 -50 24 -30 4 -57 2 -62 -3 -7 -7 -6 -10 2 -10 7 0 12 -3
12 -7 0 -5 -43 -9 -95 -11 l-95 -2 6 62 c3 35 6 70 6 78 0 8 7 46 14 84 16 78
12 103 -5 29z"/>
<path d="M2766 1230 c-14 -39 -26 -77 -26 -83 1 -7 14 24 30 67 17 44 28 81
26 83 -2 2 -15 -28 -30 -67z"/>
<path d="M2485 1253 c-150 -33 -557 -133 -607 -149 -43 -14 -65 -34 -38 -34 6
0 10 4 10 9 0 9 161 49 213 53 15 1 27 5 27 9 0 7 177 51 338 85 45 10 82 21
82 26 0 4 -1 7 -2 7 -2 -1 -12 -3 -23 -6z"/>
<path d="M480 1204 c11 -19 29 -45 40 -56 11 -12 20 -26 20 -31 0 -6 11 -24
24 -41 12 -17 30 -45 39 -62 9 -17 27 -42 41 -55 14 -13 26 -27 26 -31 0 -5
-35 -8 -79 -8 l-79 0 -5 33 c-25 146 -32 176 -38 160 -4 -10 -3 -25 1 -33 4
-8 10 -37 14 -64 5 -43 4 -47 -9 -36 -9 7 -13 20 -10 28 3 9 0 19 -7 24 -10 6
-10 10 2 18 13 8 13 10 -1 10 -17 0 -38 37 -59 105 -7 22 -16 44 -21 49 -5 5
3 -26 16 -70 14 -43 33 -109 42 -146 12 -49 21 -67 32 -65 8 1 18 -9 22 -23 4
-14 8 -18 8 -10 1 12 4 11 12 -3 6 -10 8 -32 4 -50 -5 -25 -4 -29 5 -17 9 12
10 9 5 -13 -4 -19 -2 -26 5 -22 7 4 9 -3 5 -22 -5 -23 -4 -25 5 -13 10 12 11
11 7 -8 -3 -12 -2 -20 3 -17 4 2 15 -17 25 -43 10 -26 51 -109 91 -184 41 -76
74 -141 74 -146 0 -14 52 -84 58 -78 3 4 -3 19 -14 34 -11 15 -25 41 -33 57
-7 17 -17 37 -22 45 -19 32 -62 128 -91 205 -17 44 -34 84 -39 89 -5 6 -9 20
-9 32 0 12 -7 27 -15 34 -9 7 -13 15 -11 18 3 2 -1 20 -9 39 -22 53 -20 61 23
61 21 0 42 2 48 3 5 2 23 0 39 -3 32 -7 26 3 205 -373 62 -130 137 -298 145
-323 4 -13 9 -21 11 -19 9 9 -94 260 -200 491 -58 126 -104 231 -102 234 3 2
20 0 38 -6 37 -10 333 -10 344 1 4 4 5 10 2 13 -7 7 -378 5 -389 -1 -10 -7
-35 26 -114 153 -66 108 -117 172 -135 172 -5 0 -1 -16 10 -36z"/>
<path d="M2483 1163 c-28 -38 -77 -107 -108 -155 l-58 -88 -144 0 c-111 0
-143 -3 -143 -13 0 -10 31 -13 145 -11 167 2 161 -1 221 97 21 34 40 64 43 67
4 3 24 32 46 65 22 33 43 62 46 65 3 3 8 13 12 23 13 35 -10 15 -60 -50z"/>
<path d="M2646 1133 c-4 -38 -10 -76 -12 -85 -5 -15 1 -18 34 -18 23 0 42 -5
45 -12 2 -7 4 1 4 17 0 17 3 41 7 55 5 19 4 18 -7 -5 -10 -22 -20 -30 -40 -30
l-26 -1 6 73 c3 40 4 73 1 73 -3 0 -9 -30 -12 -67z"/>
<path d="M2805 1090 c-19 -38 -33 -70 -30 -70 2 0 21 32 40 70 19 39 33 70 30
70 -2 0 -21 -31 -40 -70z"/>
<path d="M940 1126 c0 -14 111 -36 183 -36 22 0 28 -3 18 -9 -9 -6 -12 -23
-10 -55 l4 -46 -79 0 c-58 0 -77 -3 -69 -11 6 -6 39 -9 80 -7 l69 3 38 -269
c20 -147 41 -278 46 -290 17 -42 10 65 -15 234 -34 230 -56 427 -49 443 4 11
-12 15 -69 20 -40 4 -90 13 -110 22 -31 13 -37 13 -37 1z"/>
<path d="M1960 1095 c-89 -19 -98 -23 -60 -24 25 -1 72 -5 104 -11 33 -5 61
-8 63 -6 2 2 8 17 13 35 10 37 19 36 -120 6z"/>
<path d="M1 1072 c-1 -39 95 -247 163 -351 118 -183 243 -315 397 -422 68 -47
147 -96 174 -109 28 -12 74 -33 103 -47 29 -13 61 -22 70 -20 10 2 -29 25 -90
54 -214 102 -387 240 -530 424 -106 136 -171 249 -275 479 -12 25 -12 25 -12
-8z"/>
<path d="M2987 1068 c-13 -62 -163 -347 -227 -433 -157 -210 -353 -365 -582
-461 -84 -36 -108 -39 -62 -10 46 31 18 28 -67 -8 -109 -45 -210 -65 -389 -77
-218 -16 -499 11 -642 60 -77 26 -115 47 -173 93 -44 35 -42 33 15 -24 60 -58
73 -66 165 -96 55 -18 135 -37 178 -42 44 -5 109 -15 145 -21 65 -12 397 -7
467 7 105 20 166 35 207 53 26 11 64 20 86 19 21 0 47 4 58 10 10 6 48 23 84
38 208 88 456 310 591 530 23 38 69 122 101 187 51 102 59 126 56 165 l-3 47
-8 -37z"/>
<path d="M966 1033 c4 -16 8 -30 9 -33 2 -3 34 -4 72 -2 67 3 68 4 70 33 l2
29 -80 0 -79 0 6 -27z"/>
<path d="M1205 1023 c4 -16 7 -29 8 -29 1 -1 34 0 73 3 64 5 71 8 67 24 -3 11
-12 19 -20 19 -8 0 -11 -4 -8 -10 10 -17 -81 -12 -95 5 -20 24 -33 18 -25 -12z"/>
<path d="M1511 1006 c7 -8 108 -10 115 -3 4 4 -21 7 -56 7 -35 0 -61 -2 -59
-4z"/>
<path d="M2705 897 c-33 -62 -70 -122 -82 -134 -12 -13 -19 -23 -16 -23 3 0 1
-6 -5 -12 -5 -7 -22 -35 -37 -63 -63 -115 -127 -197 -249 -323 -71 -72 -134
-132 -139 -132 -6 0 0 12 14 28 l24 27 -26 -23 c-14 -12 -26 -29 -26 -37 0
-12 6 -11 31 5 64 40 184 153 251 235 22 27 48 57 58 67 9 10 17 23 17 28 0 6
5 10 10 10 6 0 10 9 10 21 0 11 5 17 10 14 6 -3 10 0 10 7 0 8 12 30 26 49 26
34 188 359 182 364 -2 2 -30 -47 -63 -108z"/>
<path d="M2684 953 c-9 -27 -30 -79 -45 -117 -16 -39 -27 -71 -25 -73 5 -5 87
178 93 209 9 43 -3 33 -23 -19z"/>
<path d="M1290 980 c-49 -4 -69 -8 -58 -14 10 -4 42 -6 73 -4 53 3 56 2 62
-22 9 -40 34 -84 57 -102 20 -17 18 -18 -74 -18 l-95 0 3 -147 c2 -82 8 -155
13 -163 9 -17 8 -21 14 50 4 62 8 66 15 15 5 -36 7 -12 9 85 l1 135 69 1 70 1
31 -91 c31 -89 33 -107 16 -186 -3 -14 3 0 13 31 l19 56 -29 82 c-39 111 -39
121 5 111 19 -4 54 -6 78 -3 68 7 99 6 153 -3 l50 -9 3 -115 c2 -63 0 -128 -3
-145 -3 -17 -27 -53 -58 -84 l-52 -55 -92 -2 c-51 -1 -98 -6 -104 -10 -12 -7
-10 16 6 96 3 14 -3 3 -12 -25 l-18 -50 -53 -3 c-45 -3 -52 -5 -42 -18 10 -11
44 -14 166 -14 143 0 155 -1 166 -20 18 -28 30 -25 16 4 -10 23 -5 31 51 94
l61 69 0 156 0 157 -89 0 -89 0 13 28 c24 51 28 72 11 72 -14 0 -36 -54 -36
-87 0 -10 -24 -13 -84 -13 l-84 0 -16 45 c-8 25 -13 52 -9 60 3 11 -4 17 -25
21 -16 3 -34 13 -38 23 -8 13 -21 15 -84 11z"/>
<path d="M1743 969 c-32 -9 -46 -29 -20 -29 6 0 3 -8 -9 -18 -23 -18 -50 -79
-41 -89 9 -8 73 97 69 114 -2 10 28 13 153 13 97 0 155 4 155 10 0 13 -263 12
-307 -1z"/>
<path d="M1909 923 c-33 -4 -37 -7 -43 -41 -3 -20 -9 -137 -13 -259 l-6 -222
-62 -51 -63 -50 -176 0 c-115 0 -176 4 -176 10 0 6 -14 34 -30 63 -29 50 -30
51 -24 17 3 -19 2 -30 -3 -25 -4 6 -24 18 -43 28 -35 19 -34 18 10 -25 103
-98 83 -91 274 -92 190 -1 193 0 277 81 l36 34 7 197 c7 196 16 286 30 299 4
4 30 10 58 13 62 6 80 31 21 28 -21 -1 -54 -3 -74 -5z"/>
<path d="M1202 883 c5 -21 13 -74 17 -118 l8 -80 1 80 c2 98 -7 155 -23 155
-10 0 -11 -9 -3 -37z"/>
<path d="M2506 912 c-5 -8 -21 -69 -32 -122 -13 -63 -35 -140 -51 -176 -25
-58 -61 -166 -52 -157 24 26 117 307 138 420 8 42 7 51 -3 35z"/>
<path d="M1021 870 c-3 -40 24 -186 35 -192 6 -5 18 -32 25 -60 6 -29 20 -72
30 -96 10 -24 26 -71 35 -105 14 -53 52 -144 54 -125 0 11 -65 233 -104 353
-19 61 -44 139 -55 175 -10 36 -20 58 -20 50z"/>
<path d="M209 785 c11 -22 26 -48 33 -58 13 -18 14 -17 14 2 0 11 -4 17 -8 15
-5 -3 -11 9 -14 26 -4 17 -9 28 -12 26 -3 -3 -11 2 -19 12 -8 9 -5 -1 6 -23z"/>
<path d="M890 691 c0 -23 60 -227 79 -271 l12 -25 -6 25 c-15 66 -74 283 -79
288 -3 3 -6 -5 -6 -17z"/>
<path d="M585 600 c20 -66 44 -123 44 -110 1 8 -8 40 -20 70 -22 57 -37 83
-24 40z"/>
<path d="M0 494 c0 -29 169 -186 283 -262 37 -25 67 -48 67 -53 0 -4 -36 -46
-81 -93 -69 -73 -78 -86 -58 -85 29 0 152 137 157 173 2 17 -6 31 -30 50 -44
35 -47 38 -88 66 -33 23 -57 44 -180 159 -51 47 -70 60 -70 45z"/>
<path d="M2954 458 c-16 -13 -43 -36 -59 -52 -49 -47 -137 -119 -192 -156 -29
-19 -56 -44 -62 -56 -11 -25 -2 -41 74 -133 39 -47 56 -60 78 -60 29 -1 29 -1
-21 52 -71 75 -115 127 -111 131 2 1 22 13 43 26 90 54 296 235 296 260 0 16
-14 12 -46 -12z"/>
<path d="M1228 311 c-2 -17 0 -29 6 -28 5 1 13 -14 17 -33 20 -92 48 -167 49
-130 1 24 -54 220 -61 220 -4 0 -9 -13 -11 -29z"/>
</g>
</svg>
